<svg width="1205" height="580" viewBox="0 0 1205 580" fill="none" xmlns="http://www.w3.org/2000/svg">
<rect width="1205" height="580" rx="75" fill="#12193A"/>
<path d="M58.6667 93.6667H1152" stroke="#EBEBFF"/>
<path d="M58.6667 173.667H1152" stroke="#EBEBFF"/>
<path d="M58.6667 253.667H1152" stroke="#EBEBFF"/>
<path d="M58.6667 333.667H1152" stroke="#EBEBFF"/>
<path d="M58.6667 413.667H1152" stroke="#EBEBFF"/>
<path d="M58.6667 493.667H1152" stroke="#EBEBFF"/>
<path d="M58.6667 67V520.333" stroke="#EBEBFF" stroke-width="2"/>
<path d="M32 493.667H1152" stroke="#EBEBFF" stroke-width="2"/>
<path d="M29.5281 96.6667H22.5281V95.2667H26.5281V88.5667H26.3281L23.1281 91.7667L22.1281 90.7467L26.0081 86.8667H28.1281V95.2667H29.5281V96.6667ZM39.9188 95.2667C39.9188 95.6534 39.7788 95.9867 39.4988 96.2667C39.2321 96.5334 38.9054 96.6667 38.5188 96.6667H34.3188C33.9321 96.6667 33.5988 96.5334 33.3188 96.2667C33.0521 95.9867 32.9188 95.6534 32.9188 95.2667V88.2667C32.9188 87.88 33.0521 87.5534 33.3188 87.2867C33.5988 87.0067 33.9321 86.8667 34.3188 86.8667H38.5188C38.9054 86.8667 39.2321 87.0067 39.4988 87.2867C39.7788 87.5534 39.9188 87.88 39.9188 88.2667V95.2667ZM38.3188 95.2667V88.2667H34.5188V95.2667H38.3188ZM50.3094 95.2667C50.3094 95.6534 50.1694 95.9867 49.8894 96.2667C49.6227 96.5334 49.296 96.6667 48.9094 96.6667H44.7094C44.3227 96.6667 43.9894 96.5334 43.7094 96.2667C43.4427 95.9867 43.3094 95.6534 43.3094 95.2667V88.2667C43.3094 87.88 43.4427 87.5534 43.7094 87.2867C43.9894 87.0067 44.3227 86.8667 44.7094 86.8667H48.9094C49.296 86.8667 49.6227 87.0067 49.8894 87.2867C50.1694 87.5534 50.3094 87.88 50.3094 88.2667V95.2667ZM48.7094 95.2667V88.2667H44.9094V95.2667H48.7094Z" fill="#EBEBFF"/>
<path d="M40.1188 175.267C40.1188 175.653 39.9788 175.987 39.6988 176.267C39.4321 176.533 39.1054 176.667 38.7188 176.667H34.1188C33.7321 176.667 33.3988 176.533 33.1188 176.267C32.8521 175.987 32.7188 175.653 32.7188 175.267V172.267C32.7188 171.933 32.8254 171.653 33.0388 171.427C33.2654 171.2 33.5588 171.087 33.9188 171.087V168.267C33.9188 167.88 34.0254 167.553 34.2388 167.287C34.4521 167.007 34.7454 166.867 35.1188 166.867H37.7188C38.0921 166.867 38.3854 167.007 38.5988 167.287C38.8121 167.553 38.9188 167.88 38.9188 168.267V171.087C39.2788 171.087 39.5654 171.2 39.7788 171.427C40.0054 171.64 40.1188 171.92 40.1188 172.267V175.267ZM37.6188 171.067V168.267H35.2188V171.067H37.6188ZM38.5188 175.267V172.267H34.3188V175.267H38.5188ZM50.3094 175.267C50.3094 175.653 50.1694 175.987 49.8894 176.267C49.6227 176.533 49.296 176.667 48.9094 176.667H44.7094C44.3227 176.667 43.9894 176.533 43.7094 176.267C43.4427 175.987 43.3094 175.653 43.3094 175.267V168.267C43.3094 167.88 43.4427 167.553 43.7094 167.287C43.9894 167.007 44.3227 166.867 44.7094 166.867H48.9094C49.296 166.867 49.6227 167.007 49.8894 167.287C50.1694 167.553 50.3094 167.88 50.3094 168.267V175.267ZM48.7094 175.267V168.267H44.9094V175.267H48.7094Z" fill="#EBEBFF"/>
<path d="M40.1188 255.267C40.1188 255.653 39.9788 255.987 39.6988 256.267C39.4321 256.533 39.1054 256.667 38.7188 256.667H34.3188C33.9321 256.667 33.5988 256.533 33.3188 256.267C33.0521 255.987 32.9188 255.653 32.9188 255.267V248.267C32.9188 247.88 33.0521 247.553 33.3188 247.287C33.5988 247.007 33.9321 246.867 34.3188 246.867H39.9188V248.267H34.5188V250.867H38.7188C39.1054 250.867 39.4321 251.007 39.6988 251.287C39.9788 251.553 40.1188 251.88 40.1188 252.267V255.267ZM38.5188 255.267V252.267H34.5188V255.267H38.5188ZM50.3094 255.267C50.3094 255.653 50.1694 255.987 49.8894 256.267C49.6227 256.533 49.296 256.667 48.9094 256.667H44.7094C44.3227 256.667 43.9894 256.533 43.7094 256.267C43.4427 255.987 43.3094 255.653 43.3094 255.267V248.267C43.3094 247.88 43.4427 247.553 43.7094 247.287C43.9894 247.007 44.3227 246.867 44.7094 246.867H48.9094C49.296 246.867 49.6227 247.007 49.8894 247.287C50.1694 247.553 50.3094 247.88 50.3094 248.267V255.267ZM48.7094 255.267V248.267H44.9094V255.267H48.7094Z" fill="#EBEBFF"/>
<path d="M40.1188 326.867L34.3188 332.587V333.867H38.3188V330.467L39.9188 328.867V336.667H38.3188V335.267H32.9188V332.547C32.9188 332.387 32.9188 332.26 32.9188 332.167C32.9321 332.073 32.9521 331.993 32.9788 331.927C33.0054 331.847 33.0454 331.78 33.0988 331.727C33.1521 331.66 33.2188 331.58 33.2988 331.487L37.8788 326.867H40.1188ZM50.3094 335.267C50.3094 335.653 50.1694 335.987 49.8894 336.267C49.6227 336.533 49.296 336.667 48.9094 336.667H44.7094C44.3227 336.667 43.9894 336.533 43.7094 336.267C43.4427 335.987 43.3094 335.653 43.3094 335.267V328.267C43.3094 327.88 43.4427 327.553 43.7094 327.287C43.9894 327.007 44.3227 326.867 44.7094 326.867H48.9094C49.296 326.867 49.6227 327.007 49.8894 327.287C50.1694 327.553 50.3094 327.88 50.3094 328.267V335.267ZM48.7094 335.267V328.267H44.9094V335.267H48.7094Z" fill="#EBEBFF"/>
<path d="M39.9188 416.667H32.9188V414.567L38.3188 410.607V408.267H34.5188V409.667H32.9188V408.267C32.9188 407.88 33.0521 407.553 33.3188 407.287C33.5988 407.007 33.9321 406.867 34.3188 406.867H38.5188C38.9054 406.867 39.2321 407.007 39.4988 407.287C39.7788 407.553 39.9188 407.88 39.9188 408.267V411.167L34.6188 415.067V415.267H39.9188V416.667ZM50.3094 415.267C50.3094 415.653 50.1694 415.987 49.8894 416.267C49.6227 416.533 49.296 416.667 48.9094 416.667H44.7094C44.3227 416.667 43.9894 416.533 43.7094 416.267C43.4427 415.987 43.3094 415.653 43.3094 415.267V408.267C43.3094 407.88 43.4427 407.553 43.7094 407.287C43.9894 407.007 44.3227 406.867 44.7094 406.867H48.9094C49.296 406.867 49.6227 407.007 49.8894 407.287C50.1694 407.553 50.3094 407.88 50.3094 408.267V415.267ZM48.7094 415.267V408.267H44.9094V415.267H48.7094Z" fill="#EBEBFF"/>
<path d="M152.2 524H141.7V513.5L143.8 511.4H141.7V509.3H152.2V511.4H144.1V517.4L145.9 515.6H152.2V517.7H144.1V521.9H152.2V524ZM166.6 524H164.5V515.3H158.2V524H156.1V513.5H158.2V515L159.7 513.5H164.5C165.08 513.5 165.57 513.71 165.97 514.13C166.39 514.53 166.6 515.02 166.6 515.6V524ZM181.307 524H172.907C172.327 524 171.827 523.8 171.407 523.4C171.007 522.98 170.807 522.48 170.807 521.9V515.6C170.807 515.02 171.007 514.53 171.407 514.13C171.827 513.71 172.327 513.5 172.907 513.5H179.207C179.787 513.5 180.277 513.71 180.677 514.13C181.097 514.53 181.307 515.02 181.307 515.6V517.7L179.207 519.8H173.207L175.007 518H179.207V515.3H172.907V522.2H181.307V524Z" fill="#EBEBFF"/>
<path d="M325.2 519.8H317.1V524H314.7V513.5L316.8 511.4H314.7V509.3H325.2V511.4H317.1V519.5L318.9 517.7H325.2V519.8ZM339.307 524H330.907C330.327 524 329.827 523.8 329.407 523.4C329.007 522.98 328.807 522.48 328.807 521.9V515.6C328.807 515.02 329.007 514.53 329.407 514.13C329.827 513.71 330.327 513.5 330.907 513.5H337.207C337.787 513.5 338.277 513.71 338.677 514.13C339.097 514.53 339.307 515.02 339.307 515.6V517.7L337.207 519.8H331.207L333.007 518H337.207V515.3H330.907V522.2H339.307V524ZM353.406 521.9C353.406 522.48 353.196 522.98 352.776 523.4C352.376 523.8 351.886 524 351.306 524H345.006V522.23L342.906 524.3V508.7L345.006 506.6V515L346.506 513.5H351.306C351.886 513.5 352.376 513.71 352.776 514.13C353.196 514.53 353.406 515.02 353.406 515.6V521.9ZM351.306 522.2V515.3H345.006V522.2H351.306Z" fill="#EBEBFF"/>
<path d="M502.4 523.97H500V512.93L500.9 511.43H499.55L495.86 519.8H494.12L490.55 511.43H489.2L490.1 512.93V523.97H487.7V509.3H491.99L494.96 516.32H495.26L498.23 509.3H502.4V523.97ZM517.248 524H515.148V522.47L513.348 524H508.848C508.268 524 507.768 523.8 507.348 523.4C506.948 522.98 506.748 522.48 506.748 521.9V519.8C506.748 519.22 506.948 518.73 507.348 518.33C507.768 517.91 508.268 517.7 508.848 517.7H514.848L513.048 519.47H508.848V522.2H515.148V515.3H506.748L508.548 513.5H515.148C515.728 513.5 516.218 513.71 516.618 514.13C517.038 514.53 517.248 515.02 517.248 515.6V524ZM529.836 517.7H527.736V515.3H523.536V524H521.436V513.5H523.536V515L525.036 513.5H527.736C528.316 513.5 528.806 513.71 529.206 514.13C529.626 514.53 529.836 515.02 529.836 515.6V517.7Z" fill="#EBEBFF"/>
<path d="M674.3 524H671.9V519.8H664.1V524H661.7V511.4C661.7 510.82 661.9 510.33 662.3 509.93C662.72 509.51 663.22 509.3 663.8 509.3H674.3V524ZM671.9 517.7V511.4H664.1V519.5L665.9 517.7H671.9ZM689.888 521.9C689.888 522.48 689.678 522.98 689.258 523.4C688.858 523.8 688.368 524 687.788 524H681.488V522.23L679.388 524.3V508.7L681.488 506.6V515L682.988 513.5H687.788C688.368 513.5 688.858 513.71 689.258 514.13C689.678 514.53 689.888 515.02 689.888 515.6V521.9ZM687.788 522.2V515.3H681.488V522.2H687.788ZM702.488 517.7H700.388V515.3H696.188V524H694.088V513.5H696.188V515L697.688 513.5H700.388C700.968 513.5 701.458 513.71 701.858 514.13C702.278 514.53 702.488 515.02 702.488 515.6V517.7Z" fill="#EBEBFF"/>
<path d="M849.4 523.97H847V512.93L847.9 511.43H846.55L842.86 519.8H841.12L837.55 511.43H836.2L837.1 512.93V523.97H834.7V509.3H838.99L841.96 516.32H842.26L845.23 509.3H849.4V523.97ZM864.248 524H862.148V522.47L860.348 524H855.848C855.268 524 854.768 523.8 854.348 523.4C853.948 522.98 853.748 522.48 853.748 521.9V519.8C853.748 519.22 853.948 518.73 854.348 518.33C854.768 517.91 855.268 517.7 855.848 517.7H861.848L860.048 519.47H855.848V522.2H862.148V515.3H853.748L855.548 513.5H862.148C862.728 513.5 863.218 513.71 863.618 514.13C864.038 514.53 864.248 515.02 864.248 515.6V524ZM878.936 528.2C878.936 528.78 878.726 529.27 878.306 529.67C877.906 530.09 877.416 530.3 876.836 530.3H868.136L869.936 528.5H876.836V522.5L875.336 524H870.536C869.956 524 869.456 523.8 869.036 523.4C868.636 522.98 868.436 522.48 868.436 521.9V513.5H870.536V522.2H876.836V513.5H878.936V528.2Z" fill="#EBEBFF"/>
<path d="M1017.3 521.9C1017.3 522.34 1017.1 522.79 1016.7 523.25C1016.26 523.75 1015.76 524 1015.2 524H1008.9C1008.34 524 1007.85 523.79 1007.43 523.37C1007.01 522.95 1006.8 522.46 1006.8 521.9V519.8H1009.2V521.9H1014.9V511.4H1006.8V509.3H1017.3V521.9ZM1032.6 524H1030.5V522.5L1029 524H1024.2C1023.62 524 1023.12 523.8 1022.7 523.4C1022.3 522.98 1022.1 522.48 1022.1 521.9V513.5H1024.2V522.2H1030.5V513.5H1032.6V524ZM1047.31 524H1045.21V515.3H1038.91V524H1036.81V513.5H1038.91V515L1040.41 513.5H1045.21C1045.79 513.5 1046.28 513.71 1046.68 514.13C1047.1 514.53 1047.31 515.02 1047.31 515.6V524Z" fill="#EBEBFF"/>
<path d="M58.6667 413.667L178.667 360.333" stroke="#15E5E7" stroke-width="7"/>
<path d="M178.667 360.333L312 387" stroke="#9A3457" stroke-width="7"/>
<path d="M312 387L445.333 280.333" stroke="#15E5E7" stroke-width="7"/>
<path d="M445.333 280.333L578.667 333.667" stroke="#9A3457" stroke-width="7"/>
<path d="M578.667 333.667L712 213.667" stroke="#15E5E7" stroke-width="7"/>
<path d="M712 213.667L845.333 253.667" stroke="#9A3457" stroke-width="7"/>
<path d="M845.333 253.667L978.667 133.667" stroke="#15E5E7" stroke-width="7"/>
<path d="M978.667 133.667L1112 200.333" stroke="#9A3457" stroke-width="7"/>
<path d="M59 420C62.3137 420 65 417.314 65 414C65 410.686 62.3137 408 59 408C55.6863 408 53 410.686 53 414C53 417.314 55.6863 420 59 420Z" fill="#0067FE"/>
<path d="M179 366C182.314 366 185 363.314 185 360C185 356.686 182.314 354 179 354C175.686 354 173 356.686 173 360C173 363.314 175.686 366 179 366Z" fill="#0067FE"/>
<path d="M312 393C315.314 393 318 390.314 318 387C318 383.686 315.314 381 312 381C308.686 381 306 383.686 306 387C306 390.314 308.686 393 312 393Z" fill="#0067FE"/>
<path d="M445 286C448.314 286 451 283.314 451 280C451 276.686 448.314 274 445 274C441.686 274 439 276.686 439 280C439 283.314 441.686 286 445 286Z" fill="#0067FE"/>
<path d="M579 340C582.314 340 585 337.314 585 334C585 330.686 582.314 328 579 328C575.686 328 573 330.686 573 334C573 337.314 575.686 340 579 340Z" fill="#0067FE"/>
<path d="M712 220C715.314 220 718 217.314 718 214C718 210.686 715.314 208 712 208C708.686 208 706 210.686 706 214C706 217.314 708.686 220 712 220Z" fill="#0067FE"/>
<path d="M845 260C848.314 260 851 257.314 851 254C851 250.686 848.314 248 845 248C841.686 248 839 250.686 839 254C839 257.314 841.686 260 845 260Z" fill="#0067FE"/>
<path d="M979 140C982.314 140 985 137.314 985 134C985 130.686 982.314 128 979 128C975.686 128 973 130.686 973 134C973 137.314 975.686 140 979 140Z" fill="#0067FE"/>
<path d="M1112 206C1115.31 206 1118 203.314 1118 200C1118 196.686 1115.31 194 1112 194C1108.69 194 1106 196.686 1106 200C1106 203.314 1108.69 206 1112 206Z" fill="#0067FE"/>
</svg>
