<svg width="1205" height="285" viewBox="0 0 1205 285" fill="none" xmlns="http://www.w3.org/2000/svg">
<rect width="1205" height="285" rx="75" fill="#12193A"/>
<rect x="960" y="31" width="170" height="170" rx="50" fill="#0067FE"/>
<path d="M982 225.4L979.2 228.2H975.6V233.8H978.8C979.573 233.8 980.227 234.08 980.76 234.64C981.32 235.173 981.6 235.827 981.6 236.6V242.2C981.6 242.973 981.32 243.64 980.76 244.2C980.227 244.733 979.573 245 978.8 245H975.6L973.2 247.4V245H966.8L969.6 242.2H973.2V236.6H970C969.227 236.6 968.56 236.333 968 235.8C967.467 235.24 967.2 234.573 967.2 233.8V228.2C967.2 227.427 967.467 226.773 968 226.24C968.56 225.68 969.227 225.4 970 225.4H973.2L975.6 223V225.4H982ZM973.2 233.8V228.2H970V233.8H973.2ZM978.8 242.2V236.6H975.6V242.2H978.8ZM1010.19 245H996.189V242.2H1004.19V228.8H1003.79L997.389 235.2L995.389 233.16L1003.15 225.4H1007.39V242.2H1010.19V245ZM1030.97 242.2C1030.97 242.973 1030.69 243.64 1030.13 244.2C1029.6 244.733 1028.94 245 1028.17 245H1019.77C1019 245 1018.33 244.733 1017.77 244.2C1017.24 243.64 1016.97 242.973 1016.97 242.2V228.2C1016.97 227.427 1017.24 226.773 1017.77 226.24C1018.33 225.68 1019 225.4 1019.77 225.4H1028.17C1028.94 225.4 1029.6 225.68 1030.13 226.24C1030.69 226.773 1030.97 227.427 1030.97 228.2V242.2ZM1027.77 242.2V228.2H1020.17V242.2H1027.77ZM1051.75 242.2C1051.75 242.973 1051.47 243.64 1050.91 244.2C1050.38 244.733 1049.72 245 1048.95 245H1040.55C1039.78 245 1039.11 244.733 1038.55 244.2C1038.02 243.64 1037.75 242.973 1037.75 242.2V228.2C1037.75 227.427 1038.02 226.773 1038.55 226.24C1039.11 225.68 1039.78 225.4 1040.55 225.4H1048.95C1049.72 225.4 1050.38 225.68 1050.91 226.24C1051.47 226.773 1051.75 227.427 1051.75 228.2V242.2ZM1048.55 242.2V228.2H1040.95V242.2H1048.55ZM1080.54 242.2C1080.54 242.973 1080.26 243.64 1079.7 244.2C1079.17 244.733 1078.51 245 1077.74 245H1069.34C1068.57 245 1067.9 244.733 1067.34 244.2C1066.81 243.64 1066.54 242.973 1066.54 242.2V228.2C1066.54 227.427 1066.81 226.773 1067.34 226.24C1067.9 225.68 1068.57 225.4 1069.34 225.4H1077.74C1078.51 225.4 1079.17 225.68 1079.7 226.24C1080.26 226.773 1080.54 227.427 1080.54 228.2V242.2ZM1077.34 242.2V228.2H1069.74V242.2H1077.34ZM1101.32 242.2C1101.32 242.973 1101.04 243.64 1100.48 244.2C1099.95 244.733 1099.3 245 1098.52 245H1090.12C1089.35 245 1088.68 244.733 1088.12 244.2C1087.59 243.64 1087.32 242.973 1087.32 242.2V228.2C1087.32 227.427 1087.59 226.773 1088.12 226.24C1088.68 225.68 1089.35 225.4 1090.12 225.4H1098.52C1099.3 225.4 1099.95 225.68 1100.48 226.24C1101.04 226.773 1101.32 227.427 1101.32 228.2V242.2ZM1098.12 242.2V228.2H1090.52V242.2H1098.12ZM1122.1 242.2C1122.1 242.973 1121.82 243.64 1121.26 244.2C1120.73 244.733 1120.08 245 1119.3 245H1110.9C1110.13 245 1109.46 244.733 1108.9 244.2C1108.37 243.64 1108.1 242.973 1108.1 242.2V228.2C1108.1 227.427 1108.37 226.773 1108.9 226.24C1109.46 225.68 1110.13 225.4 1110.9 225.4H1119.3C1120.08 225.4 1120.73 225.68 1121.26 226.24C1121.82 226.773 1122.1 227.427 1122.1 228.2V242.2ZM1118.9 242.2V228.2H1111.3V242.2H1118.9Z" fill="#EBEBFF"/>
<path d="M1034.06 92.6111H1056.94C1063.27 92.6111 1068.39 97.735 1068.39 104.056C1068.39 110.376 1063.27 115.5 1056.94 115.5M1034.06 92.6111V115.5M1034.06 92.6111H1025.47M1034.06 92.6111V84.0278M1056.94 115.5H1034.06M1056.94 115.5C1063.27 115.5 1068.39 120.624 1068.39 126.944C1068.39 133.265 1063.27 138.389 1056.94 138.389H1034.06M1034.06 115.5V138.389M1034.06 138.389H1025.47M1034.06 138.389V146.972M1051.22 92.6111V84.0278M1051.22 146.972V138.389M1097 115.5C1097 143.943 1073.94 167 1045.5 167C1017.06 167 994 143.943 994 115.5C994 87.0574 1017.06 64 1045.5 64C1073.94 64 1097 87.0574 1097 115.5Z" stroke="#EBEBFF" stroke-width="8" stroke-linecap="round" stroke-linejoin="round"/>
<rect x="665" y="31" width="170" height="170" rx="50" fill="#0067FE"/>
<path d="M687 225.4L684.2 228.2H680.6V233.8H683.8C684.573 233.8 685.227 234.08 685.76 234.64C686.32 235.173 686.6 235.827 686.6 236.6V242.2C686.6 242.973 686.32 243.64 685.76 244.2C685.227 244.733 684.573 245 683.8 245H680.6L678.2 247.4V245H671.8L674.6 242.2H678.2V236.6H675C674.227 236.6 673.56 236.333 673 235.8C672.467 235.24 672.2 234.573 672.2 233.8V228.2C672.2 227.427 672.467 226.773 673 226.24C673.56 225.68 674.227 225.4 675 225.4H678.2L680.6 223V225.4H687ZM678.2 233.8V228.2H675V233.8H678.2ZM683.8 242.2V236.6H680.6V242.2H683.8ZM700.189 228.2C700.189 227.427 700.456 226.773 700.989 226.24C701.549 225.68 702.216 225.4 702.989 225.4H711.789C712.562 225.4 713.216 225.68 713.749 226.24C714.309 226.773 714.589 227.427 714.589 228.2V242.2C714.589 242.973 714.309 243.64 713.749 244.2C713.216 244.733 712.562 245 711.789 245H700.589V242.2H711.389V237H702.989C702.216 237 701.549 236.733 700.989 236.2C700.456 235.64 700.189 234.973 700.189 234.2V228.2ZM703.389 228.2V234.2H711.389V228.2H703.389ZM735.97 235.84L726.77 245H722.69L732.77 234.88V228.2H725.17V231H721.97V225.4H735.97V235.84ZM756.752 245H742.752V240.8L753.552 232.88V228.2H745.952V231H742.752V228.2C742.752 227.427 743.018 226.773 743.552 226.24C744.112 225.68 744.778 225.4 745.552 225.4H753.952C754.725 225.4 755.378 225.68 755.912 226.24C756.472 226.773 756.752 227.427 756.752 228.2V234L746.152 241.8V242.2H756.752V245ZM785.541 242.2C785.541 242.973 785.261 243.64 784.701 244.2C784.167 244.733 783.514 245 782.741 245H774.341C773.567 245 772.901 244.733 772.341 244.2C771.807 243.64 771.541 242.973 771.541 242.2V228.2C771.541 227.427 771.807 226.773 772.341 226.24C772.901 225.68 773.567 225.4 774.341 225.4H782.741C783.514 225.4 784.167 225.68 784.701 226.24C785.261 226.773 785.541 227.427 785.541 228.2V242.2ZM782.341 242.2V228.2H774.741V242.2H782.341ZM806.322 242.2C806.322 242.973 806.042 243.64 805.482 244.2C804.949 244.733 804.295 245 803.522 245H795.122C794.349 245 793.682 244.733 793.122 244.2C792.589 243.64 792.322 242.973 792.322 242.2V228.2C792.322 227.427 792.589 226.773 793.122 226.24C793.682 225.68 794.349 225.4 795.122 225.4H803.522C804.295 225.4 804.949 225.68 805.482 226.24C806.042 226.773 806.322 227.427 806.322 228.2V242.2ZM803.122 242.2V228.2H795.522V242.2H803.122ZM827.103 242.2C827.103 242.973 826.823 243.64 826.263 244.2C825.73 244.733 825.076 245 824.303 245H815.903C815.13 245 814.463 244.733 813.903 244.2C813.37 243.64 813.103 242.973 813.103 242.2V228.2C813.103 227.427 813.37 226.773 813.903 226.24C814.463 225.68 815.13 225.4 815.903 225.4H824.303C825.076 225.4 825.73 225.68 826.263 226.24C826.823 226.773 827.103 227.427 827.103 228.2V242.2ZM823.903 242.2V228.2H816.303V242.2H823.903Z" fill="#EBEBFF"/>
<path d="M752.684 93.4435C749.767 91.3541 746.751 89.1935 746.751 87.1185C746.751 85.0513 748.433 83.3693 750.5 83.3693C752.567 83.3693 754.249 85.0511 754.249 87.1185C754.249 89.1891 755.928 90.8677 757.999 90.8677C760.069 90.8677 761.748 89.1891 761.748 87.1185C761.748 82.2312 758.588 78.0638 754.224 76.5161V73.9966C754.224 71.9261 752.571 70.2474 750.5 70.2474C748.43 70.2474 746.751 71.9261 746.751 73.9966V76.5161C742.387 78.0638 739.253 82.231 739.253 87.1185C739.253 93.0456 744.279 96.6459 748.317 99.5391C751.234 101.629 754.25 103.789 754.25 105.864C754.25 107.931 752.568 109.613 750.501 109.613C748.433 109.613 746.751 107.931 746.751 105.864C746.751 103.794 745.073 102.115 743.002 102.115C740.932 102.115 739.253 103.794 739.253 105.864C739.253 110.752 742.387 114.919 746.751 116.467V118.986C746.751 121.056 748.43 122.735 750.5 122.735C752.571 122.735 754.224 121.056 754.224 118.986V116.467C758.588 114.919 761.747 110.752 761.747 105.864C761.748 99.937 756.722 96.3367 752.684 93.4435Z" fill="#EBEBFF"/>
<path d="M787.99 136.394C787.943 134.392 786.332 132.78 784.33 132.733C774.034 132.494 764.612 136.678 757.635 143.649C756.395 144.905 755.244 146.198 754.224 147.536V133.795C773.143 131.908 787.991 115.899 787.991 96.4911C787.991 75.8185 771.172 59 750.5 59C729.827 59 713.008 75.8185 713.008 96.4911C713.008 115.899 727.831 131.908 746.75 133.795V147.537C745.727 146.195 744.596 144.896 743.347 143.632C736.28 136.57 726.805 132.497 716.67 132.733C714.668 132.78 713.057 134.392 713.01 136.394C712.777 146.381 716.732 155.89 723.926 163.088C730.996 170.073 740.203 173.98 749.793 173.98C750.027 173.98 750.262 173.978 750.5 173.974C760.476 174.158 769.896 170.179 777.091 163.071C784.141 156.016 788.227 146.547 787.99 136.394ZM729.213 157.771C724.153 152.708 721.312 146.408 720.66 140.384C726.666 141.034 732.975 143.869 738.03 148.92C743.155 154.106 745.902 160.362 746.58 166.306C740.606 165.635 734.343 162.84 729.213 157.771ZM750.5 126.484C733.962 126.484 720.507 113.029 720.507 96.4911C720.507 79.9531 733.962 66.4982 750.5 66.4982C767.038 66.4982 780.493 79.9531 780.493 96.4911C780.493 113.029 767.038 126.484 750.5 126.484ZM771.805 157.754C766.606 162.89 760.322 165.644 754.42 166.306C755.097 160.37 757.835 154.117 762.953 148.936C768.012 143.881 774.311 141.036 780.34 140.384C779.69 146.39 776.854 152.7 771.805 157.754Z" fill="#EBEBFF"/>
<rect x="370" y="31" width="170" height="170" rx="50" fill="#0067FE"/>
<path d="M378 225.4L375.2 228.2H371.6V233.8H374.8C375.573 233.8 376.227 234.08 376.76 234.64C377.32 235.173 377.6 235.827 377.6 236.6V242.2C377.6 242.973 377.32 243.64 376.76 244.2C376.227 244.733 375.573 245 374.8 245H371.6L369.2 247.4V245H362.8L365.6 242.2H369.2V236.6H366C365.227 236.6 364.56 236.333 364 235.8C363.467 235.24 363.2 234.573 363.2 233.8V228.2C363.2 227.427 363.467 226.773 364 226.24C364.56 225.68 365.227 225.4 366 225.4H369.2L371.6 223V225.4H378ZM369.2 233.8V228.2H366V233.8H369.2ZM374.8 242.2V236.6H371.6V242.2H374.8ZM406.189 245H392.189V242.2H400.189V228.8H399.789L393.389 235.2L391.389 233.16L399.149 225.4H403.389V242.2H406.189V245ZM434.978 242.2C434.978 242.973 434.698 243.64 434.138 244.2C433.605 244.733 432.951 245 432.178 245H423.778C423.005 245 422.338 244.733 421.778 244.2C421.245 243.64 420.978 242.973 420.978 242.2V239.4H424.178V242.2H431.778V234.2H420.978V225.4H434.978V228.2H423.778V231.4H432.178C432.951 231.4 433.605 231.68 434.138 232.24C434.698 232.773 434.978 233.427 434.978 234.2V242.2ZM455.759 242.2C455.759 242.973 455.479 243.64 454.919 244.2C454.386 244.733 453.733 245 452.959 245H444.559C443.786 245 443.119 244.733 442.559 244.2C442.026 243.64 441.759 242.973 441.759 242.2V228.2C441.759 227.427 442.026 226.773 442.559 226.24C443.119 225.68 443.786 225.4 444.559 225.4H452.959C453.733 225.4 454.386 225.68 454.919 226.24C455.479 226.773 455.759 227.427 455.759 228.2V242.2ZM452.559 242.2V228.2H444.959V242.2H452.559ZM476.541 242.2C476.541 242.973 476.261 243.64 475.701 244.2C475.167 244.733 474.514 245 473.741 245H465.341C464.567 245 463.901 244.733 463.341 244.2C462.807 243.64 462.541 242.973 462.541 242.2V228.2C462.541 227.427 462.807 226.773 463.341 226.24C463.901 225.68 464.567 225.4 465.341 225.4H473.741C474.514 225.4 475.167 225.68 475.701 226.24C476.261 226.773 476.541 227.427 476.541 228.2V242.2ZM473.341 242.2V228.2H465.741V242.2H473.341ZM505.33 242.2C505.33 242.973 505.05 243.64 504.49 244.2C503.956 244.733 503.303 245 502.53 245H494.13C493.356 245 492.69 244.733 492.13 244.2C491.596 243.64 491.33 242.973 491.33 242.2V228.2C491.33 227.427 491.596 226.773 492.13 226.24C492.69 225.68 493.356 225.4 494.13 225.4H502.53C503.303 225.4 503.956 225.68 504.49 226.24C505.05 226.773 505.33 227.427 505.33 228.2V242.2ZM502.13 242.2V228.2H494.53V242.2H502.13ZM526.111 242.2C526.111 242.973 525.831 243.64 525.271 244.2C524.738 244.733 524.084 245 523.311 245H514.911C514.138 245 513.471 244.733 512.911 244.2C512.378 243.64 512.111 242.973 512.111 242.2V228.2C512.111 227.427 512.378 226.773 512.911 226.24C513.471 225.68 514.138 225.4 514.911 225.4H523.311C524.084 225.4 524.738 225.68 525.271 226.24C525.831 226.773 526.111 227.427 526.111 228.2V242.2ZM522.911 242.2V228.2H515.311V242.2H522.911ZM546.892 242.2C546.892 242.973 546.612 243.64 546.052 244.2C545.519 244.733 544.866 245 544.092 245H535.692C534.919 245 534.252 244.733 533.692 244.2C533.159 243.64 532.892 242.973 532.892 242.2V228.2C532.892 227.427 533.159 226.773 533.692 226.24C534.252 225.68 534.919 225.4 535.692 225.4H544.092C544.866 225.4 545.519 225.68 546.052 226.24C546.612 226.773 546.892 227.427 546.892 228.2V242.2ZM543.692 242.2V228.2H536.092V242.2H543.692Z" fill="#EBEBFF"/>
<path d="M401 116.269C401 95.8718 401 85.6733 407.337 79.3367C413.673 73.0001 423.872 73.0001 444.269 73.0001H465.903C486.3 73.0001 496.499 73.0001 502.836 79.3367C509.172 85.6733 509.172 95.8718 509.172 116.269C509.172 136.666 509.172 146.865 502.836 153.201C496.499 159.538 486.3 159.538 465.903 159.538H444.269C423.872 159.538 413.673 159.538 407.337 153.201C401 146.865 401 136.666 401 116.269Z" stroke="#EBEBFF" stroke-width="8"/>
<path d="M444.269 137.903H422.634" stroke="#EBEBFF" stroke-width="8" stroke-linecap="round"/>
<path d="M465.903 137.903H457.79" stroke="#EBEBFF" stroke-width="8" stroke-linecap="round"/>
<path d="M401 105.452H509.172" stroke="#EBEBFF" stroke-width="8" stroke-linecap="round"/>
<rect x="75" y="31" width="170" height="170" rx="50" fill="#0067FE"/>
<path d="M97 225.4L94.2 228.2H90.6V233.8H93.8C94.5733 233.8 95.2267 234.08 95.76 234.64C96.32 235.173 96.6 235.827 96.6 236.6V242.2C96.6 242.973 96.32 243.64 95.76 244.2C95.2267 244.733 94.5733 245 93.8 245H90.6L88.2 247.4V245H81.8L84.6 242.2H88.2V236.6H85C84.2267 236.6 83.56 236.333 83 235.8C82.4667 235.24 82.2 234.573 82.2 233.8V228.2C82.2 227.427 82.4667 226.773 83 226.24C83.56 225.68 84.2267 225.4 85 225.4H88.2L90.6 223V225.4H97ZM88.2 233.8V228.2H85V233.8H88.2ZM93.8 242.2V236.6H90.6V242.2H93.8ZM125.189 235.84L115.989 245H111.909L121.989 234.88V228.2H114.389V231H111.189V225.4H125.189V235.84ZM145.97 242.2C145.97 242.973 145.69 243.64 145.13 244.2C144.597 244.733 143.944 245 143.17 245H134.77C133.997 245 133.33 244.733 132.77 244.2C132.237 243.64 131.97 242.973 131.97 242.2V239.4H135.17V242.2H142.77V234.2H131.97V225.4H145.97V228.2H134.77V231.4H143.17C143.944 231.4 144.597 231.68 145.13 232.24C145.69 232.773 145.97 233.427 145.97 234.2V242.2ZM166.752 242.2C166.752 242.973 166.472 243.64 165.912 244.2C165.378 244.733 164.725 245 163.952 245H155.552C154.778 245 154.112 244.733 153.552 244.2C153.018 243.64 152.752 242.973 152.752 242.2V228.2C152.752 227.427 153.018 226.773 153.552 226.24C154.112 225.68 154.778 225.4 155.552 225.4H163.952C164.725 225.4 165.378 225.68 165.912 226.24C166.472 226.773 166.752 227.427 166.752 228.2V242.2ZM163.552 242.2V228.2H155.952V242.2H163.552ZM195.541 242.2C195.541 242.973 195.261 243.64 194.701 244.2C194.167 244.733 193.514 245 192.741 245H184.341C183.567 245 182.901 244.733 182.341 244.2C181.807 243.64 181.541 242.973 181.541 242.2V228.2C181.541 227.427 181.807 226.773 182.341 226.24C182.901 225.68 183.567 225.4 184.341 225.4H192.741C193.514 225.4 194.167 225.68 194.701 226.24C195.261 226.773 195.541 227.427 195.541 228.2V242.2ZM192.341 242.2V228.2H184.741V242.2H192.341ZM216.322 242.2C216.322 242.973 216.042 243.64 215.482 244.2C214.949 244.733 214.295 245 213.522 245H205.122C204.349 245 203.682 244.733 203.122 244.2C202.589 243.64 202.322 242.973 202.322 242.2V228.2C202.322 227.427 202.589 226.773 203.122 226.24C203.682 225.68 204.349 225.4 205.122 225.4H213.522C214.295 225.4 214.949 225.68 215.482 226.24C216.042 226.773 216.322 227.427 216.322 228.2V242.2ZM213.122 242.2V228.2H205.522V242.2H213.122ZM237.103 242.2C237.103 242.973 236.823 243.64 236.263 244.2C235.73 244.733 235.076 245 234.303 245H225.903C225.13 245 224.463 244.733 223.903 244.2C223.37 243.64 223.103 242.973 223.103 242.2V228.2C223.103 227.427 223.37 226.773 223.903 226.24C224.463 225.68 225.13 225.4 225.903 225.4H234.303C235.076 225.4 235.73 225.68 236.263 226.24C236.823 226.773 237.103 227.427 237.103 228.2V242.2ZM233.903 242.2V228.2H226.303V242.2H233.903Z" fill="#EBEBFF"/>
<path d="M216.25 82.0911H103.75C102.755 82.0911 101.802 82.4862 101.098 83.1894C100.395 83.8927 100 84.8465 100 85.8411V145.841C100 146.836 100.395 147.79 101.098 148.493C101.802 149.196 102.755 149.591 103.75 149.591H216.25C217.245 149.591 218.198 149.196 218.902 148.493C219.605 147.79 220 146.836 220 145.841V85.8411C220 84.8465 219.605 83.8927 218.902 83.1894C218.198 82.4862 217.245 82.0911 216.25 82.0911ZM194.088 142.091H125.912C125.131 137.492 122.939 133.249 119.64 129.951C116.342 126.652 112.099 124.46 107.5 123.679V108.004C112.099 107.222 116.342 105.03 119.64 101.731C122.939 98.4328 125.131 94.1902 125.912 89.5911H194.088C194.869 94.1902 197.061 98.4328 200.36 101.731C203.658 105.03 207.901 107.222 212.5 108.004V123.679C207.901 124.46 203.658 126.652 200.36 129.951C197.061 133.249 194.869 137.492 194.088 142.091ZM212.5 100.316C209.921 99.6427 207.567 98.2941 205.682 96.409C203.797 94.5239 202.448 92.1705 201.775 89.5911H212.5V100.316ZM118.225 89.5911C117.552 92.1705 116.203 94.5239 114.318 96.409C112.433 98.2941 110.079 99.6427 107.5 100.316V89.5911H118.225ZM107.5 131.366C110.079 132.039 112.433 133.388 114.318 135.273C116.203 137.158 117.552 139.512 118.225 142.091H107.5V131.366ZM201.775 142.091C202.448 139.512 203.797 137.158 205.682 135.273C207.567 133.388 209.921 132.039 212.5 131.366V142.091H201.775Z" fill="#EBEBFF"/>
<path d="M128.162 58.5035C127.735 58.2566 127.264 58.0964 126.775 58.032C126.286 57.9677 125.789 58.0005 125.312 58.1285C124.352 58.3781 123.529 58.9984 123.025 59.8535L115.525 72.716C115.028 73.5813 114.894 74.6086 115.155 75.5721C115.415 76.5356 116.047 77.3562 116.912 77.8535C117.778 78.3508 118.805 78.484 119.768 78.2237C120.732 77.9635 121.553 77.3313 122.05 76.466L127.675 66.866L146.687 77.8535C147.553 78.3508 148.58 78.484 149.543 78.2237C150.507 77.9635 151.328 77.3313 151.825 76.466C152.322 75.6007 152.455 74.5733 152.195 73.6099C151.935 72.6464 151.303 71.8258 150.437 71.3285L128.162 58.5035Z" fill="#EBEBFF"/>
<path d="M191.837 173.178C192.405 173.516 193.052 173.697 193.712 173.703C194.035 173.758 194.365 173.758 194.687 173.703C195.648 173.454 196.471 172.834 196.975 171.978L204.475 159.116C204.972 158.251 205.105 157.223 204.845 156.26C204.585 155.296 203.953 154.476 203.087 153.978C202.222 153.481 201.195 153.348 200.231 153.608C199.268 153.868 198.447 154.501 197.95 155.366L192.4 164.966L173.387 153.978C172.522 153.481 171.495 153.348 170.531 153.608C169.568 153.868 168.747 154.501 168.25 155.366C167.753 156.231 167.619 157.259 167.88 158.222C168.14 159.186 168.772 160.006 169.637 160.503L191.837 173.178Z" fill="#EBEBFF"/>
<path d="M160 93.3411C155.55 93.3411 151.2 94.6607 147.5 97.133C143.8 99.6053 140.916 103.119 139.213 107.231C137.51 111.342 137.064 115.866 137.932 120.231C138.801 124.595 140.943 128.604 144.09 131.751C147.237 134.898 151.246 137.041 155.61 137.909C159.975 138.777 164.499 138.331 168.61 136.628C172.722 134.925 176.236 132.042 178.708 128.341C181.18 124.641 182.5 120.291 182.5 115.841C182.5 109.874 180.129 104.151 175.91 99.9312C171.69 95.7116 165.967 93.3411 160 93.3411ZM160 130.841C157.033 130.841 154.133 129.961 151.666 128.313C149.2 126.665 147.277 124.322 146.142 121.581C145.006 118.84 144.709 115.824 145.288 112.915C145.867 110.005 147.296 107.332 149.393 105.234C151.491 103.137 154.164 101.708 157.074 101.129C159.983 100.551 162.999 100.848 165.74 101.983C168.481 103.118 170.824 105.041 172.472 107.508C174.12 109.974 175 112.874 175 115.841C175 119.819 173.42 123.635 170.607 126.448C167.794 129.261 163.978 130.841 160 130.841Z" fill="#EBEBFF"/>
</svg>
