<svg width="60" height="60" viewBox="0 0 60 60" fill="none" xmlns="http://www.w3.org/2000/svg">
<circle cx="30" cy="30" r="30" fill="#EBEBFF"/>
<path d="M17.4512 13.5C17.9383 13.5001 18.4057 13.6944 18.75 14.0391C19.094 14.3837 19.2871 14.8509 19.2871 15.3379V17.4365C21.2985 15.7275 23.6947 14.522 26.2764 13.9268C29.2323 13.2453 32.3185 13.3908 35.1973 14.3477C38.076 15.3045 40.6367 17.0365 42.5986 19.3525C44.5603 21.6685 45.8483 24.48 46.3213 27.4795L46.4385 28.2266L46.4092 28.2188C46.6128 30.1654 46.4714 32.1348 45.9873 34.0352C45.4419 36.1758 44.4737 38.1859 43.1406 39.9463C41.8075 41.7067 40.1361 43.1825 38.2246 44.2861C36.313 45.3898 34.1995 46.0996 32.0098 46.373C29.8202 46.6464 27.5982 46.4777 25.4746 45.8779C23.3509 45.2781 21.3687 44.2586 19.6445 42.8799C17.9204 41.5012 16.4883 39.7916 15.4346 37.8506C14.3808 35.9095 13.7257 33.7766 13.5078 31.5781V31.5752C13.4842 31.3198 13.5135 31.0616 13.5947 30.8184C13.6759 30.5753 13.8073 30.3519 13.9795 30.1621C14.1519 29.9722 14.3623 29.82 14.5967 29.7158C14.8289 29.6126 15.0799 29.5583 15.334 29.5566C15.7865 29.5495 16.2257 29.7125 16.5645 30.0127C16.8607 30.2753 17.062 30.6266 17.1396 31.0117L17.165 31.1787L17.166 31.1885C17.4205 34.1106 18.6643 36.8583 20.6914 38.9756C22.7184 41.0928 25.407 42.4531 28.3115 42.8311C31.2161 43.209 34.163 42.5819 36.6631 41.0537C39.1631 39.5255 41.0667 37.1876 42.0586 34.4277C43.0505 31.6678 43.0706 28.6511 42.1162 25.8779C41.1617 23.1049 39.2896 20.7416 36.8105 19.1797C34.3314 17.6179 31.3937 16.9506 28.4844 17.2891C25.9929 17.5789 23.6518 18.5934 21.7393 20.1904H24.1328C24.62 20.1905 25.0873 20.3838 25.4316 20.7285C25.7759 21.0732 25.9687 21.5411 25.9688 22.0283C25.9688 22.5156 25.7759 22.9834 25.4316 23.3281C25.0873 23.6729 24.62 23.8662 24.1328 23.8662H18.7871C17.9457 23.8662 17.1388 23.5319 16.5439 22.9365C15.949 22.3408 15.6143 21.5326 15.6143 20.6904V15.3379C15.6143 14.8507 15.8082 14.3838 16.1523 14.0391C16.4967 13.6943 16.9639 13.5 17.4512 13.5ZM30.042 21.5283C30.5292 21.5283 30.9965 21.7226 31.3408 22.0674C31.6849 22.412 31.8788 22.8791 31.8789 23.3662V29.2959L35.3496 32.7715L35.3555 32.7783C35.6898 33.1249 35.8752 33.5887 35.8711 34.0703C35.8669 34.552 35.6734 35.0136 35.333 35.3545C34.9926 35.6951 34.5323 35.8884 34.0508 35.8926C33.5692 35.8968 33.1051 35.7117 32.7588 35.377L32.7529 35.3701L28.7432 31.3564C28.3989 31.0118 28.2062 30.5438 28.2061 30.0566V23.3662C28.2061 22.8792 28.3991 22.412 28.7432 22.0674C29.0875 21.7226 29.5548 21.5283 30.042 21.5283Z" fill="#C01A40" stroke="#C01A40"/>
<path d="M37.6758 52.25C38.6841 53.2504 40.3159 53.2504 41.3242 52.25V52.249L49.2402 44.3926H49.2412C49.9352 43.7035 50.1741 42.6862 49.8701 41.7676L49.8027 41.585C49.4009 40.6222 48.4573 40.0001 47.417 40H44.5713V31.375C44.5713 30.0757 43.528 29 42.2139 29H36.7861C35.4721 29 34.4287 30.0757 34.4287 31.375V40H31.583C30.5428 40.0001 29.599 40.6222 29.1973 41.585C28.7951 42.549 29.0194 43.6576 29.7598 44.3926L37.6758 52.249V52.25Z" fill="#C01A40" stroke="#EBEBFF" stroke-width="2"/>
</svg>
