<svg width="60" height="60" viewBox="0 0 60 60" fill="none" xmlns="http://www.w3.org/2000/svg">
<circle cx="30" cy="30" r="30" fill="#EBEBFF"/>
<path d="M46.8421 34.1579C48.5861 34.1579 50 35.5718 50 37.3158C50 38.9572 48.7476 40.3062 47.1462 40.4592L46.8421 40.4737H20.7817L23.8119 43.5038C25.0452 44.7371 25.0452 46.7366 23.8119 47.9699C22.6558 49.1259 20.8262 49.1981 19.5858 48.1866L19.346 47.9699L11.2843 39.9082C9.23305 37.8568 10.5691 34.3981 13.3711 34.1698L13.6661 34.1579H46.8421ZM36.188 11.9249C37.3442 10.7688 39.1739 10.6965 40.4143 11.7082L40.6541 11.9249L48.7156 19.9866C50.7669 22.0379 49.4309 25.4966 46.6289 25.7249L46.3339 25.7368H13.1579C11.4138 25.7368 10 24.323 10 22.5789C10 20.9375 11.2524 19.5885 12.8538 19.4355L13.1579 19.4211H39.2183L36.188 16.3909C34.9549 15.1576 34.9549 13.1582 36.188 11.9249Z" fill="#12193A"/>
</svg>
