<svg width="45" height="50" viewBox="0 0 45 50" fill="none" xmlns="http://www.w3.org/2000/svg">
<circle cx="22.5" cy="25" r="8.33333" fill="#EBEBFF"/>
<path fill-rule="evenodd" clip-rule="evenodd" d="M22.5 0C19.7155 0 17.1795 1.50175 12.1077 4.50527L10.3923 5.52115C5.32053 8.52467 2.78463 10.0264 1.39233 12.5C-4.96705e-07 14.9736 0 17.9771 0 23.9843V26.0157C0 32.023 -4.96705e-07 35.0265 1.39233 37.5C2.78463 39.9735 5.32053 41.4753 10.3923 44.4787L12.1077 45.4948C17.1795 48.4983 19.7155 50 22.5 50C25.2847 50 27.8205 48.4983 32.8925 45.4948L34.6077 44.4787C39.6795 41.4753 42.2155 39.9735 43.6077 37.5C45 35.0265 45 32.023 45 26.0157V23.9843C45 17.9771 45 14.9736 43.6077 12.5C42.2155 10.0264 39.6795 8.52467 34.6077 5.52115L32.8925 4.50527C27.8205 1.50175 25.2847 0 22.5 0ZM13.125 25C13.125 19.8223 17.3225 15.625 22.5 15.625C27.6777 15.625 31.875 19.8223 31.875 25C31.875 30.1777 27.6777 34.375 22.5 34.375C17.3225 34.375 13.125 30.1777 13.125 25Z" fill="#0067FE"/>
</svg>
